Coordinates
version=1
nRows=5
nColumns=42
inDegrees=yes

Units are S.I. units (second, meters, Newtons, ...)
If the header above contains a line with 'inDegrees', this indicates whether rotational values are in degrees (yes) or radians (no).

endheader
time	pelvis_tilt	pelvis_list	pelvis_rotation	pelvis_tx	pelvis_ty	pelvis_tz	hip_flexion_r	hip_adduction_r	hip_rotation_r	knee_angle_r	knee_adduction_r	knee_angle_r_beta	ankle_angle_r	subtalar_angle_r	mtp_angle_r	hip_flexion_l	hip_adduction_l	hip_rotation_l	knee_angle_l	knee_adduction_l	knee_angle_l_beta	ankle_angle_l	subtalar_angle_l	mtp_angle_l	lumbar_extension	lumbar_bending	lumbar_rotation	arm_flex_r	arm_add_r	arm_rot_r	elbow_flex_r	pro_sup_r	wrist_flex_r	wrist_dev_r	arm_flex_l	arm_add_l	arm_rot_l	elbow_flex_l	pro_sup_l	wrist_flex_l	wrist_dev_l
      0.74000000	      7.31257378	     -1.07031428	    -10.69359301	     -0.87874145	      0.95647673	      0.28830769	    -17.15968846	      3.29369304	    -11.20248338	      9.62267902	     -3.47183336	      0.16794743	     29.70879200	     27.01492477	     -7.81955971	     18.34476482	     -3.72933916	    -33.37201055	     10.44794581	     -4.58794483	      0.18235105	     13.68723034	     24.87318256	     -7.81955971	    -21.48274535	     -0.16656839	      7.09958182	      6.92878109	    -18.10493055	     13.46797792	     43.95501913	     90.00000001	      0.00000000	      0.00000000	    -14.43467214	     -5.19364788	     -2.14448231	     33.72861454	     90.00000001	      0.00000000	      0.00000000
      0.75000000	      7.31926028	     -1.22928575	    -11.00307127	     -0.86425818	      0.95321673	      0.28850228	    -18.05360822	      3.19654182	    -11.01740112	      9.87326479	     -3.48030721	      0.17232098	     30.44329583	     26.91936005	     -7.81225069	     18.33963202	     -3.74356797	    -33.91553128	      7.71947691	     -3.79727865	      0.13473029	     13.06486096	     26.30608211	     -7.81225069	    -21.43491207	     -0.03915319	      7.45315646	      7.17453575	    -18.36307443	     13.47577478	     43.98599910	     90.00000001	      0.00000000	      0.00000000	    -14.91646154	     -4.91104766	     -2.23508635	     33.69524698	     90.00000001	      0.00000000	      0.00000000
      0.76000000	      7.24920349	     -1.43231911	    -11.39226834	     -0.84984275	      0.94989205	      0.28889133	    -18.77733043	      3.19560219	    -10.69291617	     10.31030906	     -3.68164271	      0.17994884	     30.89768060	     26.87571096	     -7.80837648	     18.51381666	     -3.96964326	    -34.48324677	      5.73313203	     -3.03368385	      0.10006203	     12.79800923	     27.18010737	     -7.80837648	    -21.33023349	      0.10880266	      7.90402901	      7.38418543	    -18.60460919	     13.48756953	     43.99477191	     90.00000001	      0.00000000	      0.00000000	    -15.35922089	     -4.66858637	     -2.31835945	     33.71903614	     90.00000001	      0.00000000	      0.00000000
      0.77000000	      7.34600299	     -1.51333046	    -11.75990334	     -0.83509457	      0.94678844	      0.28912709	    -19.71704583	      2.90329058	    -10.43577289	     10.68864273	     -3.62655984	      0.18655201	     31.54258525	     26.84182142	     -7.80449919	     18.54606540	     -3.95584027	    -34.90167105	      4.13323501	     -2.58270915	      0.07213856	     12.35010514	     28.56870768	     -7.80449919	    -21.35700635	      0.10425223	      8.26245077	      7.55728664	    -18.83200387	     13.56218276	     43.97139647	     90.00000001	      0.00000000	      0.00000000	    -15.79027486	     -4.46741911	     -2.49551294	     33.79416791	     90.00000001	      0.00000000	      0.00000000
      0.78000000	      7.43040895	     -1.54833912	    -12.12776367	     -0.82024129	      0.94380220	      0.28942849	    -20.60855950	      2.56660461	    -10.21415697	     11.11889861	     -3.63248682	      0.19406139	     31.97792880	     26.79280748	     -7.80080727	     18.73177452	     -3.97977696	    -35.29846493	      3.30452012	     -2.30680505	      0.05767476	     12.10056809	     29.56711316	     -7.80080727	    -21.36061084	      0.02727454	      8.57760666	      7.68478699	    -19.01104983	     13.64295642	     43.93105399	     90.00000001	      0.00000000	      0.00000000	    -16.20207152	     -4.29402422	     -2.70234021	     33.89631905	     90.00000001	      0.00000000	      0.00000000
